<svg version="1.1" width="24" height="24" stroke="currentColor" stroke-width="2" stroke-linecap="round" stroke-linejoin="round" xmlns="http://www.w3.org/2000/svg" xmlns:xlink="http://www.w3.org/1999/xlink" x="0px" y="0px" viewBox="0 0 1000 1000" enable-background="new 0 0 1000 1000" xml:space="preserve" style="fill: #999">
<g><g transform="translate(0.000000,512.000000) scale(0.100000,-0.100000)"><path d="M1983.7,5001.3c-21.1-9.6-55.5-36.4-76.6-59.4c-34.5-38.3-38.3-69-38.3-316c0-260.5,1.9-277.7,44-321.7c57.5-61.3,141.7-78.5,226-42.1c82.3,34.5,122.6,120.6,122.6,268.1v105.3h3428.1h3428.1V2375.6V115.8h-402.2h-400.3l76.6,139.8c155.1,277.7,151.3,231.7,32.6,446.2l-105.3,189.6l-875.2,5.7l-873.3,3.8V508.4V115.8l-1120.3-3.8l-1120.4-5.7L4278,54.5c-97.7-99.6-49.8-287.3,80.4-312.2C4391-263.4,5563-269.2,6963-273l2547.1-3.8v-95.8v-95.8l-2589.2-9.6l-2591.2-9.6l-51.7-51.7c-72.8-74.7-72.8-185.8,0-260.4l51.7-51.7h2729.1h2729.1l51.7,53.6l53.6,51.7v373.5V0.9l-51.7,51.7c-45.9,44-72.8,53.6-187.7,59.4l-134.1,7.7l-3.8,2378.6c-5.7,2259.8-7.6,2378.6-40.2,2428.4c-19.2,26.8-61.3,59.4-93.8,70.8C9310.9,5022.3,2045,5024.2,1983.7,5001.3z"/><path d="M2251.8,4020.7c-425.2-70.9-794.8-402.2-928.8-831.2c-47.9-155.1-55.5-436.6-19.2-593.7c99.6-419.4,474.9-790.9,886.7-881l118.7-24.9l-210.7-1.9c-534.3-5.8-840.7-187.7-972.9-576.5c-40.2-122.6-42.1-147.5-47.9-1285l-5.8-1162.5l-111.1-69c-294.9-181.9-461.5-482.6-461.5-833.1c0-260.5,76.6-463.4,250.9-660.7l76.6-86.2l-82.4-51.7c-226-141.7-394.5-335.2-515.2-591.8c-105.3-224.1-136-406-128.3-754.6c5.7-285.4,5.7-289.2,59.4-340.9l51.7-53.6H5000h4787.8l51.7,53.6c53.6,51.7,53.6,55.5,59.4,340.9c7.7,348.6-23,530.5-128.3,754.6c-120.7,256.6-289.2,450.1-515.2,591.8l-82.3,51.7l76.6,86.2c174.3,197.3,250.9,400.3,250.9,660.7c0,268.1-78.5,471.1-256.6,662.6c-570.7,614.7-1591.5,271.9-1687.2-568.8c-28.7-241.3,78.5-563.1,247.1-743.1l88.1-93.8l-122.6-78.5c-124.5-82.3-342.8-298.8-379.2-379.2c-26.8-59.4-38.3-57.4-76.6,7.7c-63.2,103.4-227.9,268.1-360,360l-134.1,91.9l65.1,67c363.9,379.2,352.4,1009.3-24.9,1367.4c-199.2,189.6-421.3,281.5-681.8,281.5c-273.9,0-509.4-99.6-699-296.8c-358.1-373.4-371.5-946.1-30.7-1323.3l86.2-97.7l-132.1-91.9c-136-91.9-296.8-252.8-358.1-356.2c-17.2-30.6-38.3-55.5-44.1-55.5c-5.7,0-26.8,24.9-44,55.5c-61.3,103.4-222.2,264.3-358.1,356.2l-132.1,91.9l86.2,97.7c340.9,377.3,327.5,949.9-30.6,1323.3c-118.7,122.6-268.1,216.4-415.6,260.4l-82.3,23v892.4v892.4l497.9,180c342.8,122.6,528.6,201.1,597.5,249c78.5,53.6,218.3,220.2,632,758.4c293,379.2,549.6,729.7,570.7,779.5c51.7,118.7,51.7,337.1,1.9,448.1c-137.9,304.5-526.7,419.4-810.1,239.4c-63.2-40.2-199.2-201.1-513.3-607.1c-235.6-304.5-436.6-563-448.1-576.5c-11.5-11.5-316-82.3-674.1-157l-653.1-136l-314.1,1.9c-254.7,1.9-296.8,5.7-218.3,21.1c53.6,9.6,174.3,55.5,268.1,101.5c587.9,283.4,831.2,997.8,538.2,1576.1C3263,3848.3,2755.5,4105,2251.8,4020.7z M2780.4,3568.7c333.2-164.7,519-543.9,430.9-882.9c-153.2-601.4-867.6-804.4-1308-373.5c-316,306.4-310.2,800.5,9.6,1110.8c162.8,159,325.6,218.3,570.7,210.7C2634.8,3630,2675,3620.4,2780.4,3568.7z M5928.8,2806.5c51.7-49.8,61.3-120.6,24.9-187.7c-46-86.2-1016.9-1338.7-1061-1365.5c-24.9-17.2-283.4-116.8-576.5-222.2c-291.1-105.3-555.4-203-586-218.3c-107.2-57.5-109.2-68.9-109.2-1126.1v-967.1l-101.5-28.7c-206.8-59.4-457.7-270-555.4-463.5c-84.3-170.4-113-289.2-113-465.4c1.9-260.5,91.9-494.1,264.3-674.1l65.1-67l-134.1-91.9c-132.1-91.9-296.8-256.6-360-362c-38.3-63.2-49.8-65.1-76.6-5.7c-36.4,80.4-254.7,296.9-379.2,379.2l-122.6,78.5l88.1,93.8c168.5,180,275.8,501.7,247.1,743.1c-46,411.7-335.1,748.8-727.7,852.2c-63.2,15.3-141.7,28.7-176.2,28.7h-63.2v1087.8c0,1202.7,0,1208.4,120.6,1329.1c120.7,118.7,122.6,118.7,951.8,132.1l756.5,9.6l699,149.4c430.9,90,718.2,160.9,746.9,181.9c26.8,19.2,249,291.1,492.2,607.1c245.1,314.1,459.6,584.1,478.8,597.5C5775.6,2871.6,5877.1,2860.1,5928.8,2806.5z M1717.5-1711.2c216.4-99.6,342.8-312.2,329.4-557.3c-7.7-168.5-67-289.2-191.5-402.2c-291.1-260.4-758.4-159-923.1,199.2c-57.5,126.4-55.5,340.9,3.8,471.1C1074-1697.8,1413-1573.4,1717.5-1711.2z M4065.4-1707.4c122.6-51.7,270-214.5,312.2-342.8c72.8-216.4,1.9-473-172.4-626.2c-118.7-103.4-243.2-143.6-417.5-134.1c-170.5,7.6-294.9,67-398.3,183.8c-145.6,166.6-187.7,386.9-111.1,589.8C3399-1715.1,3747.5-1569.5,4065.4-1707.4z M6421-1707.4c187.7-80.4,340.9-319.8,340.9-532.4c0-203-136-425.2-317.9-517.1c-122.6-61.3-329.4-74.7-463.5-30.6c-208.8,70.8-365.8,279.6-383,511.3c-11.5,170.4,30.6,294.9,143.6,419.4C5921.2-1655.7,6172.1-1600.2,6421-1707.4z M8772.8-1705.5c206.8-90,333.2-293,333.2-534.3c1.9-239.4-103.4-409.8-317.9-517.1c-212.6-105.3-467.3-70.9-643.5,86.2c-124.5,113-183.9,233.6-191.5,402.2c-15.3,291.1,164.7,532.4,450.1,603.3C8500.8-1642.3,8667.5-1659.5,8772.8-1705.5z M1683-3245.3c463.5-109.2,785.2-534.3,766-1011.2l-5.7-137.9h-976.7H489.9l5.7,191.5c13.4,409.8,201.1,710.5,549.6,881C1257.9-3218.4,1462.8-3193.5,1683-3245.3z M4038.6-3245.3c467.3-111.1,791-547.7,766-1034.2l-5.7-114.9l-971-5.7l-972.9-3.8v189.6c0,231.7,44,388.8,155.1,555.4C3236.2-3320,3647.9-3153.3,4038.6-3245.3z M6396.1-3245.3c239.4-57.4,457.7-208.8,593.7-413.7c111.1-166.6,155.1-323.7,155.1-555.4v-189.6l-971,3.8l-972.9,5.7l-5.7,114.9C5160.9-3614.9,5764.1-3095.9,6396.1-3245.3z M8707.7-3237.6c61.3-11.5,174.3-49.8,247.1-84.3c348.6-168.5,536.2-471.1,549.6-881l5.7-191.5h-976.7h-976.7l-5.7,137.9c-19.2,471.1,300.7,900.1,758.4,1009.3C8445.3-3212.7,8560.2-3210.8,8707.7-3237.6z"/></g></g>
</svg>